# xmcd CD database file
#
# Track frame offsets:
#	150
#	7143
#	21768
#	42633
#
# Disc length: 838 seconds
#
# Revision: 0
# Processed by: cddbd v1.5.1PL0 Copyright (c) Steve Scherf et al.
# Submitted via: CDex 1.51
#
DISCID=2e034404
DTITLE=PRIMEず! - 秋葉原的鋼鉄
DYEAR=2004
DGENRE=Rock
TTITLE0=オープニングテーマ PRIMEず!
TTITLE1=秋葉原大爆発!
TTITLE2=プライム! 〜エナジー・モア・エナジー〜
TTITLE3=チャレンジNo. 1
EXTD=YEAR: 2004
EXTT0=
EXTT1=
EXTT2=
EXTT3=
PLAYORDER=
